<svg xmlns="http://www.w3.org/2000/svg" viewBox="0 0 60 60"><defs><style>.cls-1{fill:#31e0db;}</style></defs><title>dribbble</title><g id="Layer_2" data-name="Layer 2"><g id="Layer_1-2" data-name="Layer 1"><path class="cls-1" d="M30,60A30,30,0,1,1,60,30,30,30,0,0,1,30,60Zm.7-34.45A94.13,94.13,0,0,1,4.41,29.18a5.78,5.78,0,0,0,0,.82,25.6,25.6,0,0,0,6.56,17.11c7-12.46,20.82-16.91,20.82-16.91.35-.12.7-.2,1-.31C32.15,28.44,31.45,27,30.7,25.55ZM19.06,6.84A25.67,25.67,0,0,0,4.92,24.73,97,97,0,0,0,28.59,21.6,154.59,154.59,0,0,0,19.06,6.84ZM34.53,34.14l-.16,0s-15.2,5.31-20.12,16c-.23-.2-.59-.43-.59-.43A25.66,25.66,0,0,0,40,53.59,108.08,108.08,0,0,0,34.53,34.14Zm-10.74-29a.14.14,0,0,1,.08,0S23.83,5.12,23.79,5.16ZM30,4.38a26,26,0,0,0-6.05.74A125.19,125.19,0,0,1,33.55,20c9.65-3.59,13.28-9.14,13.36-9.26A25.43,25.43,0,0,0,30,4.38Zm19.8,9.34c-.08.08-4.18,6-14.3,10.16.59,1.21,1.17,2.46,1.72,3.71.2.43.35.9.55,1.33a60,60,0,0,1,17.85.82A25.68,25.68,0,0,0,49.8,13.71ZM39.34,32.93a114.31,114.31,0,0,1,5,18.32,25.72,25.72,0,0,0,11-17.19A38,38,0,0,0,39.34,32.93Z"/></g></g></svg>