<svg xmlns="http://www.w3.org/2000/svg" viewBox="0 0 60 60"><defs><style>.cls-1{fill:#31e0db;}</style></defs><title>linkedin</title><g id="Layer_2" data-name="Layer 2"><g id="Layer_1-2" data-name="Layer 1"><path class="cls-1" d="M60,48.75A11.25,11.25,0,0,1,48.75,60H11.25A11.25,11.25,0,0,1,0,48.75V11.25A11.25,11.25,0,0,1,11.25,0h37.5A11.25,11.25,0,0,1,60,11.25ZM13.83,10.08c-3.09,0-5.12,2-5.12,4.69a4.69,4.69,0,0,0,5,4.69h0c3.16,0,5.12-2.11,5.12-4.69A4.67,4.67,0,0,0,13.83,10.08Zm4.45,40.16V23.13h-9V50.23Zm32.46,0V34.69c0-8.32-4.45-12.19-10.39-12.19a8.91,8.91,0,0,0-8.16,4.57h.08V23.13h-9s.12,2.54,0,27.11h9V35.08a6.33,6.33,0,0,1,.27-2.19,5,5,0,0,1,4.65-3.28c3.24,0,4.53,2.46,4.53,6.13V50.23Z"/></g></g></svg>