<svg xmlns="http://www.w3.org/2000/svg" viewBox="0 0 63.5 61"><defs><style>.cls-1{fill:#31e0db;}.cls-2{fill:#333;}.cls-3,.cls-4,.cls-5,.cls-6,.cls-7{fill:none;stroke-miterlimit:10;}.cls-3,.cls-4{stroke:#31e0db;}.cls-4,.cls-5{stroke-width:2px;}.cls-5,.cls-6,.cls-7{stroke:#333;}.cls-7{stroke-dasharray:3.08 3.08;}</style></defs><title>user-journey</title><g id="Layer_2" data-name="Layer 2"><g id="Layer_1-2" data-name="Layer 1"><polyline class="cls-1" points="10.5 41.5 1.5 0.5 22.5 8.5 44.1 1.68 63.5 14.57 53.5 41.5"/><path class="cls-2" d="M56.47,45.14a30,30,0,0,0-50.65-.45L5.5,46.5l4,5,4,3,8.37,4.09,3.63.91h13l5.75-2.42,5.26-3.47L54,49.55l2.89-4Z"/><path class="cls-3" d="M56.47,45.14a30,30,0,0,0-50.65-.45"/><path class="cls-1" d="M31.25,1a29,29,0,1,1-29,29,29,29,0,0,1,29-29m0-1a30,30,0,1,0,30,30,30,30,0,0,0-30-30Z"/><path class="cls-4" d="M56.5,14.19a30,30,0,1,1-49-2.84"/><line class="cls-5" x1="8.92" y1="11.99" x2="16.58" y2="13.51"/><line class="cls-5" x1="13.51" y1="8.92" x2="11.99" y2="16.58"/><path class="cls-6" d="M15.5,16.5s-.1.59-.17,1.49"/><path class="cls-7" d="M15.36,21.06c.37,3.49,2.15,7.33,8.64,4.94,9.5-3.5,2.5-14.5,15.5-17.5C54.67,5,54,22,54,24s-.46,22.67-22.51,19.1"/><path class="cls-6" d="M30,42.83,28.5,42.5"/><circle class="cls-2" cx="8" cy="27" r="4.5"/><path class="cls-1" d="M8,23a4,4,0,1,1-4,4,4,4,0,0,1,4-4m0-1a5,5,0,1,0,5,5,5,5,0,0,0-5-5Z"/><circle class="cls-2" cx="56" cy="33" r="4.5"/><path class="cls-1" d="M56,29a4,4,0,1,1-4,4,4,4,0,0,1,4-4m0-1a5,5,0,1,0,5,5,5,5,0,0,0-5-5Z"/><line class="cls-6" x1="22.5" y1="10.5" x2="27.5" y2="36.5"/><line class="cls-6" x1="44.5" y1="2.5" x2="36.5" y2="36.5"/><path class="cls-2" d="M31.25,42a14,14,0,1,1,14-14A14,14,0,0,1,31.25,42Z"/><path class="cls-1" d="M31.25,14.5A13.5,13.5,0,1,1,17.75,28a13.52,13.52,0,0,1,13.5-13.5m0-1A14.5,14.5,0,1,0,45.75,28a14.5,14.5,0,0,0-14.5-14.5Z"/></g></g></svg>