<svg xmlns="http://www.w3.org/2000/svg" viewBox="0 0 155.13 174.16"><defs><style>.cls-1{fill:#fff;}</style></defs><title>logo-ko</title><g id="Layer_2" data-name="Layer 2"><g id="Layer_1-2" data-name="Layer 1"><path class="cls-1" d="M132.42,39.22c-6-8.54-1-10.55-1-10.55,12.3.4,18.36-2.49,18.36-2.49,14.07-7-4-18.18-4-18.18C116-11,103.79,9.87,103.79,9.87c-13.56,18.3,6.53,41.41,6.53,41.41,14.93,17.61,2.81,19.34,2.81,19.34-4.33.87-13.56-4.33-13.56-4.33C32,30.8,4.92,98.32,4.92,98.32-15.27,148.53,33.19,168,33.19,168c40.82,14.74,61.55-1.74,61.55-1.74,22.1,7,37.34-8.26,37.34-8.26-4.52-6-7.71-22.88-7.71-22.88-2.3-16.92,10.68-20.09,10.68-20.09,24.51-8.43,19-36.16,19-36.16C152.51,64.33,132.42,39.22,132.42,39.22ZM97.78,156.55c-55.23,10.88-62.3-28.93-62.3-28.93l1.79-6.46c4.82,43.41,51.52,37,60.5,35.39l1.49-.3S98.74,156.37,97.78,156.55ZM127.46,11.67a3.46,3.46,0,0,1,6.91,0,3.46,3.46,0,0,1-6.91,0Z"/></g></g></svg>